<svg width="208" height="208" viewBox="0 0 208 208" fill="none" xmlns="http://www.w3.org/2000/svg">
<rect width="208" height="208" rx="36.9003" fill="#1675FF"/>
<path d="M64.4501 56.9892L73.1617 35.7546H140.132C149.388 37.0251 167.901 45.2285 167.901 67.8788C167.901 88.5083 153.146 97.756 143.795 100.476C142.102 100.968 140.334 101.092 138.571 101.092H92.7629L102.563 78.7683H136.474C137.455 78.7683 138.44 78.6421 139.331 78.2316C142.38 76.8275 146.666 73.4916 146.666 67.8788C146.666 62.266 142.38 58.9301 139.331 57.5259C138.44 57.1155 137.455 56.9892 136.474 56.9892H64.4501Z" fill="white"/>
<path d="M100.484 63.3293H76.5273L49.3034 128.667H95.5839L75.4383 179.847L147.854 106.888H82.5165L100.484 63.3293Z" fill="white"/>
</svg>
