<svg width="261" height="69" viewBox="0 0 261 69" fill="none" xmlns="http://www.w3.org/2000/svg">
<path d="M78.1155 60.4628H83.9083V52.029H90.5431C95.1235 52.029 98.5588 48.8369 98.5588 44.5696C98.5588 40.1679 95.1908 36.9422 90.5431 36.9422H78.1155V60.4628ZM83.9083 47.2576V41.8815H89.8695C91.5535 41.8815 92.6986 42.9903 92.6986 44.6032C92.6986 46.1824 91.5535 47.2576 89.8695 47.2576H83.9083Z" fill="#1E1E1E"/>
<path d="M100.859 60.4628H106.652V51.8946H111.064L115.51 60.4628H121.976L116.823 51.0545C119.484 49.8449 121.235 47.392 121.235 44.4352C121.235 40.067 117.766 36.9422 112.917 36.9422H100.859V60.4628ZM106.652 47.1904V41.8815H112.378C114.163 41.8815 115.375 42.9567 115.375 44.536C115.375 46.1152 114.163 47.1904 112.378 47.1904H106.652Z" fill="#1E1E1E"/>
<path d="M135.292 60.8324C142.364 60.8324 147.888 55.4898 147.888 48.7025C147.888 41.9151 142.364 36.5726 135.292 36.5726C128.219 36.5726 122.696 41.9151 122.696 48.7025C122.696 55.4898 128.219 60.8324 135.292 60.8324ZM135.292 55.5234C131.52 55.5234 128.657 52.6002 128.657 48.7025C128.657 44.8048 131.52 41.8815 135.292 41.8815C139.064 41.8815 141.927 44.8048 141.927 48.7025C141.927 52.6002 139.064 55.5234 135.292 55.5234Z" fill="#1E1E1E"/>
<path d="M145.969 60.4628H152.604L158.194 52.6002L163.819 60.4628H170.723L161.63 48.3329L170.016 36.9422H163.381L158.329 44.032L153.277 36.9422H146.373L154.894 48.3329L145.969 60.4628Z" fill="#1E1E1E"/>
<path d="M170.769 60.4628H176.562V36.9422H170.769V60.4628Z" fill="#1E1E1E"/>
<path d="M179.798 60.4628H198.523V55.4562H185.591V51.0209H194.044V46.1824H185.591V41.9487H198.389V36.9422H179.798V60.4628Z" fill="#1E1E1E"/>
<path d="M209.948 60.7988C216.347 60.7988 220.288 57.8419 220.288 53.0706C220.288 49.4417 217.897 47.1232 213.35 46.384L208.466 45.5776C206.479 45.2416 205.671 44.6704 205.671 43.4943C205.671 42.2175 207.119 41.4447 209.477 41.4447C211.969 41.4447 214.226 42.3183 216.718 44.2336L219.783 39.9662C217.189 37.883 213.384 36.6062 209.881 36.6062C203.852 36.6062 200.215 39.3614 200.215 43.9312C200.215 47.392 202.337 49.7105 206.176 50.3825L211.363 51.2897C213.72 51.6929 214.63 52.3314 214.63 53.6418C214.63 55.0866 213.047 55.9267 210.386 55.9267C207.658 55.9267 205.402 54.9858 202.539 52.6674L199.306 56.8675C202.236 59.3539 206.143 60.7988 209.948 60.7988Z" fill="#1E1E1E"/>
<path d="M78.1316 31.5102H96.1734V26.453H83.8677V8.22023H78.1316V31.5102Z" fill="#1E1E1E"/>
<path d="M98.6986 31.5102H104.435V8.22023H98.6986V31.5102Z" fill="#1E1E1E"/>
<path d="M119.311 31.8762C126.148 31.8762 131.15 26.7524 131.15 19.7321V18.0686H118.644V23.026H124.947C124.28 25.1886 122.112 26.6859 119.411 26.6859C115.576 26.6859 112.708 23.758 112.708 19.8652C112.708 16.0057 115.476 13.1111 119.211 13.1111C121.545 13.1111 123.546 14.1093 125.08 16.039L129.116 12.4124C126.881 9.58436 123.18 7.85425 119.211 7.85425C112.241 7.85425 106.805 13.1111 106.805 19.8652C106.805 26.6193 112.274 31.8762 119.311 31.8762Z" fill="#1E1E1E"/>
<path d="M133.514 31.5102H139.25V22.3938H148.855V31.5102H154.591V8.22023H148.855V17.1702H139.25V8.22023H133.514V31.5102Z" fill="#1E1E1E"/>
<path d="M164.097 31.5102H169.833V13.2775H177.47V8.22023H156.46V13.2775H164.097V31.5102Z" fill="#1E1E1E"/>
<path d="M179.338 31.5102H184.74V17.4697L195.679 31.5102H200.748V8.22023H195.345V21.7284L184.74 8.22023H179.338V31.5102Z" fill="#1E1E1E"/>
<path d="M203.943 31.5102H209.679V8.22023H203.943V31.5102Z" fill="#1E1E1E"/>
<path d="M212.884 31.5102H218.286V17.4697L229.225 31.5102H234.294V8.22023H228.891V21.7284L218.286 8.22023H212.884V31.5102Z" fill="#1E1E1E"/>
<path d="M249.161 31.8762C255.998 31.8762 261 26.7524 261 19.7321V18.0686H248.494V23.026H254.797C254.13 25.1886 251.962 26.6859 249.261 26.6859C245.426 26.6859 242.558 23.758 242.558 19.8652C242.558 16.0057 245.326 13.1111 249.061 13.1111C251.395 13.1111 253.396 14.1093 254.93 16.039L258.966 12.4124C256.731 9.58436 253.029 7.85425 249.061 7.85425C242.091 7.85425 236.655 13.1111 236.655 19.8652C236.655 26.6193 242.124 31.8762 249.161 31.8762Z" fill="#1E1E1E"/>
<rect width="68.6695" height="68.6695" rx="12.1823" fill="#1675FF"/>
<path d="M21.2778 18.8144L24.1539 11.804H46.2637C49.3196 12.2234 55.4312 14.9317 55.4312 22.4095C55.4312 29.2202 50.5602 32.2732 47.4729 33.1712C46.9139 33.3337 46.3304 33.3745 45.7483 33.3745H30.6251L33.8607 26.0046H45.056C45.3799 26.0046 45.7049 25.9629 45.9992 25.8274C47.0058 25.3638 48.4208 24.2625 48.4208 22.4095C48.4208 20.5565 47.0058 19.4551 45.9992 18.9916C45.7049 18.8561 45.3799 18.8144 45.056 18.8144H21.2778Z" fill="white"/>
<path d="M33.1743 20.9077H25.2651L16.2773 42.4783H31.5565L24.9056 59.3752L48.8129 35.2881H27.2424L33.1743 20.9077Z" fill="white"/>
</svg>
